<?xml version="1.0" standalone="no"?>
<!DOCTYPE svg PUBLIC "-//W3C//DTD SVG 20010904//EN"
 "http://www.w3.org/TR/2001/REC-SVG-20010904/DTD/svg10.dtd">
<svg version="1.0" xmlns="http://www.w3.org/2000/svg"
 width="1280.000000pt" height="1280.000000pt" viewBox="0 0 1280.000000 1280.000000"
 preserveAspectRatio="xMidYMid meet">

<g transform="translate(0.000000,1280.000000) scale(0.100000,-0.100000)"
fill="#000000" stroke="none">
<path d="M6280 11623 c-1111 -26 -2171 -401 -3070 -1087 -525 -400 -1025 -975
-1350 -1551 -454 -807 -681 -1669 -681 -2585 0 -564 82 -1085 253 -1610 48
-147 122 -349 153 -415 7 -16 31 -71 53 -121 246 -560 648 -1137 1098 -1574
528 -513 1078 -871 1754 -1140 865 -344 1849 -446 2785 -289 930 157 1836 585
2545 1204 233 203 476 456 655 680 894 1121 1289 2544 1100 3965 -87 654 -308
1307 -637 1885 -388 680 -944 1284 -1578 1717 -117 80 -317 208 -325 208 -2 0
-43 23 -92 51 -107 62 -281 150 -383 194 -41 18 -95 42 -120 53 -145 68 -430
167 -670 233 -449 124 -1016 193 -1490 182z m764 -2599 c3 -9 6 -978 6 -2155
l0 -2139 1120 0 1120 0 0 -299 0 -299 -22 -6 c-30 -8 -2846 -8 -2875 0 l-23 6
0 2447 c0 1346 3 2451 7 2454 3 4 154 7 334 7 289 0 328 -2 333 -16z m-1710
-1640 c24 -9 24 -329 0 -338 -9 -3 -518 -6 -1133 -6 -855 0 -1120 3 -1129 12
-17 17 -17 309 0 326 9 9 274 12 1129 12 615 0 1124 -3 1133 -6z m20 -790 c14
-5 16 -30 16 -175 l0 -169 -1520 0 -1520 0 0 168 c0 93 3 172 7 175 8 9 2995
9 3017 1z m11 -944 l0 -165 -1140 0 -1140 0 -3 155 c-1 85 0 160 2 167 4 11
219 13 1143 11 l1138 -3 0 -165z"/>
</g>
</svg>
